PathFileType	4	(X/Y/Z)	E:\Qualisys_Data\Carbon_Farble_Plate\Data\Amateur_Runner\S14\T2\S14T2V25_c3d.trc
DataRate	CameraRate	NumFrames	NumMarkers	Units	OrigDataRate	OrigDataStartFrame	OrigNumFrames
200.000000	200.000000	4	39	mm	200.000000	39	317
Frame#	Time	LSHO			RSHO			LICST			RICST			LASIS			LHEEL			RASIS			LTROC			RTROC			SACR			LTH1			LSK4			LTH2			LTH3			RHM5			LSK2			LTH4			RTH1			LTOE			RTH2			RTH3			RTH4			LLEP			RLEP			LSK1			LSK3			RSK1			LHM5			RSK2			LFT1			RSK3			RSK4			LLME			RLME			RTOE			RHEEL			RFT1			RFT2			LFT2			
		X1	Y1	Z1	X2	Y2	Z2	X3	Y3	Z3	X4	Y4	Z4	X5	Y5	Z5	X6	Y6	Z6	X7	Y7	Z7	X8	Y8	Z8	X9	Y9	Z9	X10	Y10	Z10	X11	Y11	Z11	X12	Y12	Z12	X13	Y13	Z13	X14	Y14	Z14	X15	Y15	Z15	X16	Y16	Z16	X17	Y17	Z17	X18	Y18	Z18	X19	Y19	Z19	X20	Y20	Z20	X21	Y21	Z21	X22	Y22	Z22	X23	Y23	Z23	X24	Y24	Z24	X25	Y25	Z25	X26	Y26	Z26	X27	Y27	Z27	X28	Y28	Z28	X29	Y29	Z29	X30	Y30	Z30	X31	Y31	Z31	X32	Y32	Z32	X33	Y33	Z33	X34	Y34	Z34	X35	Y35	Z35	X36	Y36	Z36	X37	Y37	Z37	X38	Y38	Z38	X39	Y39	Z39	

40	0.195	-2692.205078125	1378.120727539062	-505.3443908691406	-2690.06005859375	1359.375	-195.876220703125	-2766.53662109375	930.94970703125	-511.4268493652344	-2775.544921875	942.3134155273438	-230.0068511962891	-2726.302734375	879.7314453125	-483.8427734375	-3055.632080078125	574.7850341796875	-398.2662658691406	-2747.151611328125	907.1602172851562	-248.0344848632812	-2850.21484375	805.9862670898438	-534.9412841796875	-2882.096923828125	826.13818359375	-209.8753814697266	-2908.5078125	939.60009765625	-393.1437683105469	-2706.3603515625	606.9348754882812	-533.4837036132812	-2879.440185546875	516.2869873046875	-483.7774658203125	-2780.150146484375	581.5411376953125	-514.0703125	-2667.85302734375	515.5007934570312	-513.9915771484375	-2772.635986328125	82.06182861328125	-247.0337829589844	-2786.42919921875	501.1911315917969	-511.7237854003906	-2741.210693359375	501.6291809082031	-492.7203979492188	-2690.419189453125	637.802734375	-201.2915802001953	-3148.298583984375	330.6155090332031	-411.0847473144531	-2765.749755859375	618.5404663085938	-205.5012664794922	-2658.629638671875	547.5543823242188	-234.1121520996094	-2738.7197265625	523.350341796875	-229.035400390625	-2713.3740234375	459.8282775878906	-507.3889465332031	-2694.869140625	463.3950500488281	-235.5080413818359	-2791.775146484375	421.8951416015625	-493.5278625488281	-2890.9453125	436.9349670410156	-472.7141723632812	-2707.68017578125	339.5560302734375	-243.0293273925781	-3144.56640625	399.373046875	-476.9906311035156	-2786.581787109375	373.3872985839844	-235.1727447509766	-3085.672607421875	572.7081298828125	-374.8565979003906	-2754.3642578125	251.8512725830078	-266.8239440917969	-2824.60302734375	287.1591491699219	-253.7712860107422	-3046.009521484375	508.8913269042969	-457.2306823730469	-2881.310302734375	130.6746673583984	-287.9964904785156	-2689.343505859375	79.46916961669922	-304.6102905273438	-2942.73291015625	112.0486373901367	-350.0368347167969	-2931.112548828125	75.6080322265625	-370.1259765625	-2950.26025390625	88.7420654296875	-318.5388793945312	-3084.947265625	579.3720703125	-430.5196533203125
41	0.2	-2672.216796875	1376.827514648438	-505.5889282226562	-2666.810302734375	1358.788452148438	-195.6987762451172	-2746.178955078125	930.5860595703124	-511.0970764160156	-2757.263671875	941.3721313476562	-229.3135528564453	-2705.72802734375	879.8770141601562	-483.3556518554688	-3025.2138671875	569.1025390625	-398.0065002441406	-2726.319091796875	905.9421997070312	-247.2778930664062	-2830.875	807.0805053710938	-536.4806518554688	-2862.72607421875	825.58447265625	-209.4332580566406	-2887.94677734375	939.1060791015624	-392.3739624023438	-2677.7451171875	610.862548828125	-533.2666015625	-2846.4892578125	516.3966064453125	-483.1888122558594	-2749.8671875	582.5601196289062	-513.0995483398438	-2635.6845703125	521.184326171875	-512.8727416992188	-2772.13671875	81.64422607421875	-246.5373077392578	-2752.36181640625	503.7314758300781	-510.5515441894531	-2707.26611328125	504.3408508300781	-490.1510314941406	-2676.27880859375	631.8771362304688	-198.8266754150391	-3106.976806640625	321.14013671875	-411.5231323242188	-2751.824462890625	614.0953369140625	-205.6161956787109	-2646.54052734375	540.8302001953125	-234.4491882324219	-2727.12158203125	518.0470581054688	-230.0282287597656	-2678.802490234375	463.4908447265625	-505.3971862792969	-2685.75390625	457.7549438476562	-236.3628845214844	-2755.571533203125	424.0782165527344	-491.7796630859375	-2855.440673828125	436.896728515625	-471.6257019042969	-2700.207275390625	335.5836486816406	-243.7854919433594	-3105.5888671875	389.7527160644531	-477.7596740722656	-2778.5224609375	370.7608337402344	-234.7231140136719	-3056.154541015625	566.4602661132812	-376.2758178710938	-2752.176513671875	248.2012634277344	-267.2386779785156	-2818.58740234375	285.9845581054688	-254.0152130126953	-3012.794921875	503.8999938964844	-457.8461303710938	-2880.539306640625	131.1603088378906	-287.7890319824219	-2689.406982421875	79.30789184570312	-304.559814453125	-2942.9150390625	113.1053771972656	-349.7651062011719	-2931.325927734375	76.45608520507812	-370.2095031738281	-2949.916015625	89.14144134521484	-318.1451721191406	-3054.250244140625	572.9443359375	-430.8624267578125
42	0.205	-2652.546875	1376.759033203125	-505.4255065917969	-2643.6162109375	1359.590698242188	-196.5349426269531	-2725.838623046875	930.485595703125	-510.6357727050781	-2736.43408203125	940.6200561523438	-228.2528839111328	-2685.02392578125	880.1871948242188	-482.3377685546875	-2994.5107421875	562.1911010742188	-397.2264404296875	-2706.02978515625	905.18603515625	-247.1610565185547	-2808.504638671875	806.4774780273438	-534.9357299804688	-2843.450439453125	825.2982177734375	-209.6755981445312	-2867.305908203125	939.2342529296876	-391.7949523925781	-2649.012451171875	615.5840454101562	-532.9833984375	-2813.291748046875	516.4359741210938	-481.8301696777344	-2720.132080078125	584.485595703125	-512.6306762695312	-2603.44775390625	527.1880493164062	-511.7634582519531	-2772.058837890625	81.55309295654297	-246.6806945800781	-2719.58203125	507.0494689941406	-509.8136596679688	-2674.819580078125	509.1983337402344	-489.7179565429688	-2662.955322265625	625.803466796875	-199.1080322265625	-3066.46728515625	312.2381591796875	-412.6700134277344	-2738.678955078125	611.0494384765625	-206.1192932128906	-2636.124267578125	533.5654296875	-235.0561828613281	-2717.82568359375	513.9508056640625	-230.4715118408203	-2644.8857421875	469.447998046875	-504.1600646972656	-2679.184814453125	452.7875671386719	-237.8273773193359	-2720.2412109375	427.048095703125	-490.4664916992188	-2820.003173828125	436.5331726074219	-470.6396789550781	-2693.483642578125	332.6590576171875	-243.2055969238281	-3067.04833984375	381.0015869140625	-479.2544250488281	-2771.967529296875	369.9255065917969	-235.0315856933594	-3026.432373046875	559.37353515625	-376.6704406738281	-2747.510498046875	246.923095703125	-267.4703063964844	-2815.243896484375	285.4594116210938	-253.6670227050781	-2979.593017578125	498.7169189453125	-457.7843627929688	-2879.983154296875	132.5388793945312	-287.5823974609375	-2689.756103515625	79.09727478027344	-304.8536071777344	-2942.841552734375	114.5963287353516	-349.5365295410156	-2931.33154296875	77.52788543701172	-369.9327087402344	-2949.967041015625	90.5100326538086	-318.152099609375	-3024.3671875	565.3865966796875	-431.3572998046875
43	0.21	-2633.071533203125	1376.370849609375	-505.6249389648438	-2620.610107421875	1361.068725585938	-196.9766845703125	-2704.748291015625	931.3865966796876	-510.4478759765625	-2714.362548828125	940.5509643554688	-227.7036743164062	-2664.65380859375	880.9168090820312	-481.9273986816406	-2968.89404296875	556.5556640625	-397.1484375	-2685.128662109375	903.3602294921876	-247.0467224121094	-2786.85986328125	807.073486328125	-535.2783203125	-2823.87060546875	824.4716796875	-208.8587951660156	-2846.57373046875	939.6213989257812	-391.1221618652344	-2620.422119140625	620.783447265625	-531.9985961914062	-2780.790771484375	516.6741943359375	-481.2598266601562	-2690.238525390625	587.9102783203125	-511.6930236816406	-2571.53759765625	534.6339111328125	-510.654052734375	-2771.71728515625	81.27996063232422	-246.1424713134766	-2686.6650390625	510.2579345703125	-508.6015319824219	-2641.822265625	513.3403930664062	-487.6649169921875	-2648.8720703125	621.7714233398438	-198.9029083251953	-3024.905029296875	302.2874450683594	-413.9442138671875	-2725.0703125	609.1337280273438	-205.1963958740234	-2624.629638671875	529.4037475585938	-234.3959350585938	-2707.459228515625	511.00390625	-230.2807006835938	-2611.102294921875	475.0762023925781	-502.37890625	-2669.73095703125	449.276611328125	-238.1957244873047	-2684.98876953125	430.6631469726562	-489.3698425292969	-2784.64990234375	436.4626770019531	-469.6586608886719	-2689.05224609375	328.8438720703125	-243.9018096923828	-3028.41064453125	371.5158386230469	-480.9662475585938	-2765.80615234375	368.2694091796875	-235.06591796875	-2997.506103515625	551.374267578125	-375.845703125	-2745.03125	244.3598937988281	-267.2787475585938	-2811.107421875	286.6223449707031	-254.4729614257812	-2947.067138671875	493.0833435058594	-458.4857788085938	-2879.252685546875	133.2669525146484	-287.7238464355469	-2689.741455078125	78.54906463623047	-304.8206176757812	-2942.445068359375	115.8920593261719	-349.2701721191406	-2931.447998046875	79.17393493652344	-370.1734008789062	-2949.64404296875	91.44606018066406	-317.4668579101562	-2996.020263671875	558.3624877929688	-431.7392578125
